<?xml version="1.0" standalone="no"?>
<!DOCTYPE svg PUBLIC "-//W3C//DTD SVG 20010904//EN"
 "http://www.w3.org/TR/2001/REC-SVG-20010904/DTD/svg10.dtd">
<svg version="1.0" xmlns="http://www.w3.org/2000/svg"
 width="3840.000000pt" height="2160.000000pt" viewBox="0 0 3840.000000 2160.000000"
 preserveAspectRatio="xMidYMid meet">

<g transform="translate(0.000000,2160.000000) scale(0.100000,-0.100000)"
fill="#000000" stroke="none">
<path d="M0 10800 l0 -10800 19200 0 19200 0 0 10800 0 10800 -19200 0 -19200
0 0 -10800z m25195 7946 c44 -14 109 -42 145 -63 87 -51 197 -162 246 -248 80
-143 255 -527 344 -755 84 -215 236 -665 255 -755 1 -5 7 -30 14 -55 7 -25 15
-52 17 -60 2 -8 17 -67 33 -130 16 -63 32 -126 35 -140 3 -14 10 -43 15 -65 5
-22 12 -51 15 -65 24 -121 46 -231 51 -260 3 -19 8 -42 10 -50 2 -8 6 -35 9
-60 3 -25 8 -55 10 -67 3 -11 8 -43 12 -70 3 -26 8 -56 10 -67 2 -10 6 -44 10
-75 3 -31 8 -64 9 -73 2 -9 7 -48 10 -85 4 -37 8 -75 10 -83 2 -8 7 -53 10
-100 4 -47 8 -101 10 -120 26 -267 27 -1014 1 -1285 -2 -16 -6 -66 -10 -110
-4 -44 -9 -96 -11 -115 -3 -19 -7 -57 -10 -84 -2 -26 -7 -65 -9 -85 -3 -20 -8
-56 -11 -81 -3 -25 -8 -56 -10 -70 -10 -62 -46 -288 -51 -314 -11 -65 -66
-326 -85 -401 -10 -44 -21 -89 -23 -100 -16 -81 -131 -474 -190 -647 -144
-428 -400 -1018 -514 -1185 -78 -115 -206 -212 -344 -260 -98 -35 -289 -42
-388 -14 -233 64 -408 225 -480 441 -28 84 -29 90 -37 186 -10 142 13 235 111
433 173 351 327 750 435 1126 41 143 79 291 88 335 2 13 12 60 22 105 10 44
22 98 27 120 4 22 8 42 9 45 0 3 5 28 10 55 5 28 9 52 10 55 6 24 21 120 30
195 4 33 9 62 10 65 2 3 6 39 10 80 4 41 9 83 11 93 1 10 6 53 10 95 4 42 8
91 10 107 19 200 26 765 11 985 -11 164 -24 319 -32 370 -2 14 -6 52 -10 85
-3 33 -8 67 -10 75 -2 8 -6 38 -10 65 -5 41 -20 135 -51 315 -3 14 -20 95 -40
180 -19 85 -37 169 -40 185 -3 17 -10 38 -15 48 -5 9 -8 17 -5 17 2 0 -3 21
-11 48 -8 26 -17 58 -19 71 -9 47 -117 378 -165 511 -70 188 -165 413 -269
630 -101 211 -121 278 -124 405 -1 108 5 150 38 245 78 223 268 390 510 445
91 21 241 13 341 -19z m-6520 -290 c448 -56 865 -181 1257 -377 348 -174 484
-281 572 -448 54 -103 76 -197 76 -326 0 -205 -57 -343 -205 -490 -73 -74
-106 -99 -175 -133 -177 -87 -357 -100 -540 -41 -36 12 -123 55 -194 96 -321
187 -645 295 -1001 332 -129 14 -470 6 -595 -14 -413 -64 -782 -219 -1114
-469 -212 -160 -405 -365 -555 -592 -207 -311 -337 -661 -385 -1034 -20 -151
-15 -534 8 -670 94 -550 330 -1002 725 -1383 380 -366 869 -598 1401 -661 113
-14 456 -14 545 -1 348 52 556 116 820 250 378 191 685 464 922 819 124 185
249 443 291 599 l10 37 -826 0 c-455 1 -845 3 -867 6 -83 11 -163 35 -245 76
-115 56 -237 177 -297 293 -61 119 -77 187 -77 335 1 107 5 136 27 205 78 236
265 408 512 470 65 16 165 18 1375 18 1476 1 1363 7 1534 -81 197 -101 331
-291 367 -523 10 -64 6 -323 -6 -403 -2 -12 -6 -55 -10 -96 -3 -41 -17 -142
-31 -225 -153 -924 -650 -1769 -1386 -2356 -567 -453 -1220 -725 -1953 -815
-244 -29 -647 -27 -910 6 -1052 133 -1997 694 -2626 1560 -390 536 -648 1214
-704 1850 -4 41 -9 89 -11 105 -8 46 -7 490 0 575 57 632 229 1181 530 1687
257 433 646 854 1059 1146 492 349 1078 579 1682 662 266 37 754 42 1000 11z
m4607 -909 c199 -64 352 -200 439 -393 84 -187 169 -405 235 -604 35 -103 111
-364 118 -404 2 -12 13 -57 24 -101 11 -44 23 -93 26 -110 3 -16 14 -73 25
-125 10 -52 21 -113 25 -135 3 -22 10 -66 15 -98 6 -32 13 -84 16 -115 4 -31
8 -64 10 -72 2 -8 7 -51 11 -95 3 -44 8 -88 10 -97 25 -137 25 -812 -1 -1083
-15 -153 -28 -261 -46 -375 -18 -115 -19 -125 -24 -150 -3 -14 -7 -38 -10 -55
-7 -40 -10 -57 -35 -171 -12 -55 -23 -106 -25 -115 -37 -181 -181 -627 -279
-866 -116 -286 -166 -375 -259 -465 -82 -78 -224 -153 -328 -173 -13 -3 -37
-8 -54 -11 -45 -10 -173 -6 -230 6 -323 73 -550 348 -553 672 -1 116 17 184
95 368 103 244 217 573 239 690 3 14 8 34 11 45 4 11 8 25 9 32 1 6 11 53 23
105 18 80 36 176 56 293 2 17 7 55 11 85 3 30 8 64 10 75 2 11 6 56 10 100 3
44 9 117 13 163 13 155 3 668 -14 764 -2 9 -7 48 -10 85 -4 37 -8 75 -10 83
-2 8 -7 38 -10 65 -10 77 -62 336 -95 465 -56 223 -153 500 -258 737 -54 120
-74 199 -77 303 -7 238 112 463 316 596 69 45 145 79 202 90 17 4 48 10 67 14
71 14 221 3 302 -23z m4861 -11243 c42 -21 75 -52 95 -89 15 -27 18 -110 22
-833 l5 -803 98 75 c220 166 511 280 802 314 111 13 453 6 555 -11 658 -112
1114 -564 1255 -1244 44 -211 46 -291 43 -1500 l-3 -1141 -31 -39 c-17 -21
-48 -48 -70 -60 -38 -22 -46 -23 -363 -23 l-324 0 -43 25 c-25 15 -54 43 -68
68 l-25 42 -4 1105 c-4 1070 -5 1108 -25 1215 -95 497 -385 778 -829 802 -451
25 -789 -218 -917 -660 -55 -189 -56 -217 -56 -1373 0 -938 -2 -1069 -15
-1102 -20 -47 -50 -79 -97 -103 -34 -18 -62 -19 -357 -19 -176 0 -331 4 -344
9 -34 13 -95 68 -113 102 -21 41 -22 5092 0 5142 16 37 57 79 101 101 46 24
661 24 708 0z m-17593 -215 c274 -28 547 -96 790 -198 281 -118 618 -352 820
-568 166 -179 250 -307 250 -382 0 -59 -31 -132 -74 -174 -50 -50 -431 -270
-495 -287 -109 -29 -198 13 -300 140 -210 260 -542 457 -886 524 -44 9 -93 18
-110 22 -65 12 -374 16 -473 5 -277 -30 -523 -115 -737 -256 -103 -67 -143
-100 -236 -191 -146 -141 -249 -284 -334 -459 -116 -242 -165 -468 -165 -770
0 -376 85 -677 269 -951 322 -482 885 -765 1485 -747 368 11 791 179 1092 434
220 186 393 462 449 716 9 38 18 78 20 91 l5 22 -728 0 -728 0 -52 26 c-64 32
-108 83 -127 148 -21 70 -21 432 0 502 19 65 63 116 127 148 l52 26 1061 0
c1220 0 1119 8 1221 -94 99 -99 104 -125 90 -491 -8 -239 -25 -370 -66 -535
-185 -733 -584 -1239 -1238 -1573 -342 -174 -656 -271 -1001 -308 -104 -11
-453 -8 -521 5 -14 2 -52 7 -85 10 -62 7 -86 10 -170 26 -536 100 -997 347
-1375 737 -200 206 -339 401 -460 648 -184 373 -263 734 -262 1185 3 712 255
1322 752 1820 426 428 955 681 1554 744 142 15 464 18 586 5z m5840 -14 c352
-55 678 -172 967 -346 250 -151 491 -369 669 -606 110 -145 126 -206 79 -299
-29 -59 -41 -67 -346 -243 -237 -137 -275 -151 -346 -132 -57 15 -84 40 -164
146 -210 281 -530 478 -904 556 -141 30 -426 37 -592 15 -434 -57 -790 -247
-1042 -556 -215 -263 -330 -543 -370 -900 -11 -99 -6 -396 8 -490 45 -293 145
-543 301 -752 212 -286 478 -474 814 -574 276 -83 660 -97 933 -33 363 84 687
295 873 568 68 102 137 140 224 126 45 -7 547 -289 583 -327 50 -53 67 -143
39 -210 -39 -92 -247 -343 -391 -471 -408 -363 -873 -569 -1425 -633 -112 -12
-194 -15 -360 -11 -118 3 -226 8 -240 10 -14 3 -52 8 -85 12 -296 31 -644 145
-926 302 -339 189 -654 484 -880 823 -85 127 -211 377 -262 519 -126 349 -181
790 -147 1171 49 540 224 991 543 1394 110 140 321 345 463 452 376 283 778
440 1279 498 160 19 560 14 705 -9z m4267 -1035 c421 -44 765 -221 973 -500
50 -68 128 -218 132 -254 1 -12 5 110 8 271 l5 291 30 44 c17 23 50 54 74 67
l44 24 329 -2 c356 -2 356 -2 412 -58 60 -59 56 70 56 -1957 0 -1291 -3 -1873
-11 -1893 -14 -38 -67 -92 -106 -109 -25 -11 -104 -14 -362 -14 l-329 0 -48
33 c-81 54 -88 80 -92 305 l-4 193 -76 -73 c-385 -367 -787 -534 -1262 -523
-612 14 -1146 315 -1493 840 -249 377 -372 846 -354 1350 9 249 43 447 118
677 39 120 161 369 234 478 180 267 425 485 700 622 305 153 688 223 1022 188z
m4553 -1 c653 -63 1109 -387 1285 -912 60 -180 72 -298 37 -362 -16 -31 -74
-83 -105 -94 -18 -7 -147 -11 -348 -11 -298 0 -322 1 -358 20 -54 27 -96 82
-115 150 -77 273 -327 414 -705 397 -146 -6 -253 -31 -342 -78 -163 -87 -225
-260 -149 -415 74 -150 218 -221 775 -380 182 -52 376 -111 433 -130 468 -159
750 -368 892 -659 199 -407 116 -906 -203 -1228 -243 -246 -584 -395 -1007
-443 -178 -19 -483 -7 -642 25 -29 6 -62 13 -73 15 -126 25 -281 78 -420 146
-386 188 -649 482 -756 845 -41 138 -39 215 7 272 17 21 50 48 74 61 43 21 52
22 372 22 362 0 373 -2 435 -62 18 -18 40 -54 49 -82 66 -202 209 -329 451
-402 77 -23 107 -27 233 -28 212 -1 316 17 445 80 206 101 278 332 149 482
-108 126 -270 191 -894 358 -277 75 -553 176 -705 259 -321 175 -512 413 -576
719 -25 120 -27 348 -4 461 39 186 130 355 273 506 145 153 306 260 512 340
148 59 301 97 475 119 156 19 355 23 505 9z"/>
<path d="M20500 4199 c-301 -40 -567 -208 -737 -467 -142 -215 -213 -465 -213
-746 0 -292 75 -553 222 -777 114 -173 248 -293 423 -379 162 -80 310 -111
495 -105 460 15 850 308 1003 755 56 163 71 268 71 490 0 236 -17 339 -84 516
-186 495 -662 782 -1180 713z"/>
</g>
</svg>
